<svg width="1200" height="800" viewBox="0 0 1200 800" fill="none" xmlns="http://www.w3.org/2000/svg">
  <defs>
    <linearGradient id="bg" x1="80" y1="60" x2="1120" y2="740" gradientUnits="userSpaceOnUse">
      <stop stop-color="#F59E0B" stop-opacity="0.16"/>
      <stop offset="1" stop-color="#F59E0B" stop-opacity="0.03"/>
    </linearGradient>
  </defs>
  <rect x="40" y="40" width="1120" height="720" rx="48" fill="url(#bg)" stroke="#E7D9C7"/>
  <g fill="#111827" fill-opacity="0.06">
    <path d="M240 560V370l160 80 160-110 160 100 0-90 200 110V560H240Z"/>
    <path d="M360 560V320h110v240H360Z"/>
    <path d="M520 560V290h120v270H520Z"/>
    <path d="M700 560V330h110v230H700Z"/>
  </g>
  <g stroke="#111827" stroke-opacity="0.20" stroke-width="8">
    <path d="M240 560V370l160 80 160-110 160 100 0-90 200 110V560H240Z"/>
    <path d="M360 560V320h110v240H360Z"/>
    <path d="M520 560V290h120v270H520Z"/>
    <path d="M700 560V330h110v230H700Z"/>
    <path d="M280 560h640"/>
  </g>
  <g fill="#F59E0B" opacity="0.30">
    <rect x="280" y="480" width="70" height="60" rx="10"/>
    <rect x="370" y="480" width="70" height="60" rx="10"/>
    <rect x="460" y="480" width="70" height="60" rx="10"/>
  </g>
  <g fill="#111827" fill-opacity="0.55">
    <circle cx="980" cy="200" r="5"/>
    <circle cx="1020" cy="170" r="4"/>
    <circle cx="930" cy="170" r="4"/>
  </g>
</svg>


